<svg width="1123" height="281" viewBox="0 0 1123 281" fill="none" xmlns="http://www.w3.org/2000/svg">
<g style="mix-blend-mode:difference">
<path fill-rule="evenodd" clip-rule="evenodd" d="M184.921 46.7629L138.743 0L0 140.5L138.743 281L184.921 234.237C208.565 257.591 241.004 272 276.796 272C349.145 272 407.796 213.125 407.796 140.5C407.796 67.8746 349.145 9 276.796 9C241.004 9 208.565 23.4087 184.921 46.7629ZM202.886 64.9562L184.921 46.7629C160.771 70.6167 145.796 103.803 145.796 140.5C145.796 177.197 160.771 210.383 184.921 234.237L202.886 216.044C221.919 234.809 248.011 246.383 276.796 246.383C335.051 246.383 382.276 198.978 382.276 140.5C382.276 82.0224 335.051 34.6169 276.796 34.6169C248.011 34.6169 221.919 46.1911 202.886 64.9562ZM202.886 64.9562L277.485 140.5L202.886 216.044C183.401 196.832 171.315 170.083 171.315 140.5C171.315 110.917 183.401 84.1681 202.886 64.9562Z" fill="white"/>
</g>
<g style="mix-blend-mode:difference">
<path d="M537.06 25.1477H556.843V101.852H537.06V92.8011C531.13 100.267 522.797 104 512.062 104C501.838 104 493.046 100.114 485.684 92.3409C478.425 84.4659 474.796 74.8523 474.796 63.5C474.796 52.1477 478.425 42.5852 485.684 34.8125C493.046 26.9375 501.838 23 512.062 23C522.797 23 531.13 26.7329 537.06 34.1989V25.1477ZM500.56 79.1477C504.548 83.1364 509.608 85.1307 515.743 85.1307C521.877 85.1307 526.938 83.1364 530.925 79.1477C535.015 75.0568 537.06 69.8409 537.06 63.5C537.06 57.1591 535.015 51.9943 530.925 48.0057C526.938 43.9148 521.877 41.8693 515.743 41.8693C509.608 41.8693 504.548 43.9148 500.56 48.0057C496.573 51.9943 494.579 57.1591 494.579 63.5C494.579 69.8409 496.573 75.0568 500.56 79.1477Z" fill="white"/>
<path d="M611.282 104C599.729 104 590.067 100.114 582.297 92.3409C574.629 84.5682 570.795 74.9545 570.795 63.5C570.795 52.0454 574.629 42.4318 582.297 34.6591C590.067 26.8864 599.729 23 611.282 23C618.745 23 625.544 24.7898 631.679 28.3693C637.813 31.9489 642.465 36.7557 645.634 42.7898L628.612 52.7614C627.078 49.5909 624.726 47.0852 621.557 45.2443C618.49 43.4034 615.014 42.4829 611.129 42.4829C605.199 42.4829 600.291 44.4773 596.406 48.4659C592.521 52.3523 590.578 57.3636 590.578 63.5C590.578 69.5341 592.521 74.5454 596.406 78.5341C600.291 82.4204 605.199 84.3636 611.129 84.3636C615.116 84.3636 618.643 83.4943 621.71 81.7557C624.88 79.9148 627.231 77.4091 628.765 74.2386L645.941 84.0568C642.567 90.0909 637.813 94.9489 631.679 98.6307C625.544 102.21 618.745 104 611.282 104Z" fill="white"/>
<path d="M741.811 23C750.604 23 757.607 25.8636 762.821 31.5909C768.138 37.3182 770.796 44.9886 770.796 54.6023V101.852H751.013V55.9829C751.013 51.3807 749.888 47.8011 747.639 45.2443C745.389 42.6875 742.22 41.4091 738.13 41.4091C733.632 41.4091 730.105 42.892 727.549 45.8579C725.095 48.8239 723.868 53.1193 723.868 58.7443V101.852H704.085V55.9829C704.085 51.3807 702.96 47.8011 700.711 45.2443C698.461 42.6875 695.292 41.4091 691.202 41.4091C686.806 41.4091 683.279 42.892 680.621 45.8579C678.065 48.8239 676.787 53.1193 676.787 58.7443V101.852H657.003V25.1477H676.787V33.2784C681.387 26.4261 688.493 23 698.104 23C707.51 23 714.462 26.6818 718.96 34.0454C724.072 26.6818 731.689 23 741.811 23Z" fill="white"/>
</g>
<g style="mix-blend-mode:difference">
<path d="M529.589 170.242H549.357V246.855H529.589V238.274C524.788 245.425 517.177 249 506.757 249C498.38 249 491.434 246.191 485.917 240.573C480.503 234.954 477.796 227.191 477.796 217.282V170.242H497.563V214.831C497.563 219.938 498.942 223.871 501.701 226.629C504.459 229.285 508.136 230.613 512.733 230.613C517.841 230.613 521.928 229.03 524.992 225.863C528.057 222.696 529.589 217.946 529.589 211.613V170.242Z" fill="white"/>
<path d="M611.286 189.242H593.971V221.113C593.971 223.769 594.635 225.71 595.963 226.935C597.291 228.161 599.232 228.876 601.786 229.081C604.34 229.183 607.507 229.132 611.286 228.927V246.855C597.7 248.387 588.097 247.11 582.478 243.024C576.962 238.938 574.204 231.634 574.204 221.113V189.242H560.872V170.242H574.204V154.766L593.971 148.79V170.242H611.286V189.242Z" fill="white"/>
<path d="M625.694 210.081V191.081H683.157V210.081H625.694Z" fill="white"/>
<path d="M760.217 139.597H779.984V246.855H760.217V237.815C754.394 245.272 746.119 249 735.392 249C725.075 249 716.238 245.118 708.883 237.355C701.63 229.489 698.003 219.887 698.003 208.548C698.003 197.21 701.63 187.659 708.883 179.895C716.238 172.03 725.075 168.097 735.392 168.097C746.119 168.097 754.394 171.825 760.217 179.282V139.597ZM723.747 224.177C727.833 228.161 732.941 230.153 739.07 230.153C745.2 230.153 750.256 228.161 754.24 224.177C758.224 220.091 760.217 214.882 760.217 208.548C760.217 202.215 758.224 197.056 754.24 193.073C750.256 188.987 745.2 186.944 739.07 186.944C732.941 186.944 727.833 188.987 723.747 193.073C719.762 197.056 717.77 202.215 717.77 208.548C717.77 214.882 719.762 220.091 723.747 224.177Z" fill="white"/>
<path d="M856.291 170.242H876.059V246.855H856.291V237.815C850.366 245.272 842.04 249 831.314 249C821.098 249 812.313 245.118 804.958 237.355C797.704 229.489 794.078 219.887 794.078 208.548C794.078 197.21 797.704 187.659 804.958 179.895C812.313 172.03 821.098 168.097 831.314 168.097C842.04 168.097 850.366 171.825 856.291 179.282V170.242ZM819.821 224.177C823.806 228.161 828.862 230.153 834.992 230.153C841.121 230.153 846.178 228.161 850.162 224.177C854.248 220.091 856.291 214.882 856.291 208.548C856.291 202.215 854.248 197.056 850.162 193.073C846.178 188.987 841.121 186.944 834.992 186.944C828.862 186.944 823.806 188.987 819.821 193.073C815.837 197.056 813.845 202.215 813.845 208.548C813.845 214.882 815.837 220.091 819.821 224.177Z" fill="white"/>
<path d="M893.984 246.855V135H913.751V246.855H893.984Z" fill="white"/>
<path d="M931.843 246.855V135H951.611V246.855H931.843Z" fill="white"/>
<path d="M1027.93 170.242H1047.7V246.855H1027.93V237.815C1022.01 245.272 1013.68 249 1002.96 249C992.74 249 983.954 245.118 976.599 237.355C969.346 229.489 965.719 219.887 965.719 208.548C965.719 197.21 969.346 187.659 976.599 179.895C983.954 172.03 992.74 168.097 1002.96 168.097C1013.68 168.097 1022.01 171.825 1027.93 179.282V170.242ZM991.463 224.177C995.447 228.161 1000.5 230.153 1006.63 230.153C1012.76 230.153 1017.82 228.161 1021.8 224.177C1025.89 220.091 1027.93 214.882 1027.93 208.548C1027.93 202.215 1025.89 197.056 1021.8 193.073C1017.82 188.987 1012.76 186.944 1006.63 186.944C1000.5 186.944 995.447 188.987 991.463 193.073C987.479 197.056 985.486 202.215 985.486 208.548C985.486 214.882 987.479 220.091 991.463 224.177Z" fill="white"/>
<path d="M1083.26 192C1083.26 194.043 1084.59 195.728 1087.25 197.056C1090 198.282 1093.32 199.406 1097.21 200.427C1101.09 201.347 1104.97 202.573 1108.85 204.105C1112.73 205.535 1116 207.987 1118.66 211.46C1121.42 214.933 1122.8 219.274 1122.8 224.484C1122.8 232.349 1119.83 238.427 1113.91 242.718C1108.09 246.906 1100.78 249 1092 249C1076.26 249 1065.54 242.922 1059.82 230.766L1076.98 221.113C1079.23 227.753 1084.23 231.073 1092 231.073C1099.04 231.073 1102.57 228.876 1102.57 224.484C1102.57 222.441 1101.19 220.806 1098.43 219.581C1095.78 218.253 1092.51 217.078 1088.62 216.056C1084.74 215.035 1080.86 213.758 1076.98 212.226C1073.1 210.694 1069.78 208.293 1067.02 205.024C1064.36 201.653 1063.03 197.465 1063.03 192.46C1063.03 184.901 1065.79 178.976 1071.31 174.685C1076.93 170.293 1083.87 168.097 1092.15 168.097C1098.38 168.097 1104.05 169.527 1109.16 172.387C1114.27 175.145 1118.3 179.129 1121.26 184.339L1104.41 193.532C1101.96 188.323 1097.87 185.718 1092.15 185.718C1089.59 185.718 1087.45 186.28 1085.71 187.403C1084.08 188.527 1083.26 190.059 1083.26 192Z" fill="white"/>
</g>
</svg>
